<?xml version="1.0" encoding="UTF-8"?>
<svg version="1.1" xmlns="http://www.w3.org/2000/svg" width="1504" height="1128">
<path d="M0 0 C496.32 0 992.64 0 1504 0 C1504 372.24 1504 744.48 1504 1128 C1007.68 1128 511.36 1128 0 1128 C0 755.76 0 383.52 0 0 Z " fill="#050505" transform="translate(0,0)"/>
<path d="M0 0 C0.57927246 0.26264648 1.15854492 0.52529297 1.75537109 0.79589844 C18.69776651 8.49892172 34.69760019 19.80044752 44.8125 35.75 C46.31737636 38.15946745 46.31737636 38.15946745 48 40 C51.6547487 40.69314199 53.79623137 40.26903067 57.35302734 39.47412109 C82.26837524 35.01132773 108.34076746 41.86352787 129.50390625 55.2109375 C153.3937788 72.33388215 170.00749299 95.99270376 175.60961914 125.11108398 C176.39288005 130.90741066 176.28587498 136.72384722 176.25 142.5625 C176.25773437 143.82513672 176.26546875 145.08777344 176.2734375 146.38867188 C176.25911162 153.24718459 175.81168467 159.3787239 174 166 C174.78761719 166.57105469 175.57523438 167.14210938 176.38671875 167.73046875 C188.19070486 176.4508601 199.43646687 186.26512096 207 199 C207.35545898 199.59232422 207.71091797 200.18464844 208.07714844 200.79492188 C214.38150589 211.45895653 218.17787106 221.96815563 221 234 C221.17958252 234.59627197 221.35916504 235.19254395 221.54418945 235.80688477 C222.57198515 240.75208494 222.1858846 245.95815248 222.18530273 250.99707031 C222.18747131 253.09721701 222.20559432 255.19682237 222.22460938 257.296875 C222.25662253 264.75654918 221.92926468 271.7709367 220 279 C219.690625 280.18464844 219.38125 281.36929687 219.0625 282.58984375 C213.83518288 299.0597363 205.89798002 313.45499992 194 326 C193.31164062 326.75539063 192.62328125 327.51078125 191.9140625 328.2890625 C187.45345528 333.00456156 182.65149149 336.30853511 177.02734375 339.5546875 C174.81021805 341.72941732 174.81021805 341.72941732 174.9074707 344.01074219 C175.0938336 345.70470007 175.32266612 347.39424967 175.58178711 349.07861328 C179.51235406 376.53521812 173.73295662 404.6571504 157 427 C138.78566332 450.5335063 114.73795435 465.23667948 85.1796875 469.55859375 C80.86598663 470.07186178 76.59125514 470.1917317 72.25 470.1875 C71.46939209 470.18741943 70.68878418 470.18733887 69.88452148 470.18725586 C62.4150059 470.11424382 55.11607911 469.37202637 48 467 C47.66355469 468.04220703 47.66355469 468.04220703 47.3203125 469.10546875 C45.69630813 472.66578602 43.42373867 475.39104811 40.875 478.3125 C40.3785498 478.88645508 39.88209961 479.46041016 39.37060547 480.05175781 C37.9242087 481.71079127 36.46524429 483.35760956 35 485 C34.32453125 485.76183594 33.6490625 486.52367187 32.953125 487.30859375 C16.9445051 504.30920078 -8.77176567 515.57247162 -32.015625 516.43359375 C-34.42697035 516.4569729 -36.83862655 516.45777446 -39.25 516.4375 C-40.52053223 516.42992676 -41.79106445 516.42235352 -43.10009766 516.41455078 C-52.93663473 516.24272806 -61.69648324 515.15340252 -71 512 C-71.6403418 511.78569336 -72.28068359 511.57138672 -72.94042969 511.35058594 C-94.75170351 503.8770971 -114.7675281 488.68129557 -127 469 C-127 468.34 -127 467.68 -127 467 C-127.92296875 467.2165625 -128.8459375 467.433125 -129.796875 467.65625 C-156.62937401 473.55842075 -183.32126426 468.91825893 -206.8125 454.625 C-232.1224634 437.65019748 -247.60566205 413.71486458 -254 384 C-256.1306922 369.86068773 -255.7827465 355.80252146 -252 342 C-253.09441406 341.61134766 -253.09441406 341.61134766 -254.2109375 341.21484375 C-268.09244205 335.1684181 -279.1996145 320.46285501 -287 308 C-287.62777344 307.01773437 -288.25554687 306.03546875 -288.90234375 305.0234375 C-300.9688796 284.58689757 -305.01447909 256.09279674 -299.77148438 233.00366211 C-298.9550932 229.96474532 -297.99905114 226.98322935 -297 224 C-296.72285156 222.98808594 -296.44570313 221.97617187 -296.16015625 220.93359375 C-292.21305933 207.27336432 -284.30727541 195.56409728 -275 185 C-273.83210937 183.52660156 -273.83210937 183.52660156 -272.640625 182.0234375 C-269.94239108 178.77663872 -266.8636365 176.27858057 -263.5 173.75 C-262.94441406 173.316875 -262.38882813 172.88375 -261.81640625 172.4375 C-258.68006628 170.046502 -255.74292495 168.25695241 -252 167 C-252.309375 165.989375 -252.61875 164.97875 -252.9375 163.9375 C-257.58486002 148.75612393 -255.61610068 131.17118605 -252 116 C-251.60554687 114.26169922 -251.60554687 114.26169922 -251.203125 112.48828125 C-250.15662425 108.06201022 -249.18464468 104.01299539 -247 100 C-246.34 100 -245.68 100 -245 100 C-244.84724609 98.93845703 -244.84724609 98.93845703 -244.69140625 97.85546875 C-239.95260607 78.28449173 -219.00130263 61.76327464 -202.875 51.6875 C-187.68922363 42.92368947 -170.17579927 38.60608467 -152.75 38.8125 C-151.17605469 38.8134668 -151.17605469 38.8134668 -149.5703125 38.81445312 C-144.60993229 38.84270846 -139.86963796 38.9516224 -135 40 C-130.86190375 40.95921516 -130.86190375 40.95921516 -127 40 C-125.01056649 37.85171439 -123.35365931 35.60128033 -121.69897461 33.18945312 C-107.00071755 11.85277621 -83.33343371 -1.75032366 -58.08984375 -6.41308594 C-38.20291095 -9.71949062 -18.45030111 -8.79639543 0 0 Z " fill="#FEFEFE" transform="translate(787,316)"/>
<path d="M0 0 C12.05322762 2.97103607 22.67635279 6.74880523 32.90625 13.8828125 C48.8156677 24.77031805 66.4300944 32.47186321 86 32 C82.00165687 61.04059747 71.74444035 88.25788365 56 113 C55.62020996 113.598125 55.24041992 114.19625 54.84912109 114.8125 C52.37634529 118.64991049 49.74550385 122.35484563 47 126 C46.55527344 126.59280762 46.11054687 127.18561523 45.65234375 127.79638672 C28.62104131 150.21668097 8.02099253 168.43762 -16 183 C-17.11632812 183.68707031 -18.23265625 184.37414062 -19.3828125 185.08203125 C-38.83580068 196.66963127 -61.02526766 203.9381348 -83 209 C-85.6692446 209.65678389 -88.33458221 210.32777459 -91 211 C-91 211.99 -91 212.98 -91 214 C-90.27224365 214.17015625 -89.5444873 214.3403125 -88.79467773 214.515625 C-64.86938475 220.16321829 -42.42971442 226.68931299 -21 239 C-20.33564941 239.37237793 -19.67129883 239.74475586 -18.98681641 240.12841797 C-4.74809276 248.11862228 8.07439211 257.86416747 20 269 C20.90234375 269.78890625 21.8046875 270.5778125 22.734375 271.390625 C28.33328836 276.30900746 33.22711288 281.38602949 37.83203125 287.24609375 C39.22813321 289.01952056 40.66099342 290.76491561 42.13671875 292.47265625 C59.32792768 312.44161886 70.42401994 336.33025479 79 361 C79.35384766 362.01368652 79.35384766 362.01368652 79.71484375 363.04785156 C82.95480141 372.48713998 84.94287757 382.25055275 87 392 C87.99 392 88.98 392 90 392 C90.14695312 391.29359375 90.29390625 390.5871875 90.4453125 389.859375 C92.54878815 380.23657836 95.34705382 370.87128228 98.25 361.46411133 C98.76252773 359.78021082 99.26195496 358.09228171 99.75 356.40112305 C102.03404098 348.51776156 105.36168435 341.33280292 109 334 C109.39751465 333.19030762 109.7950293 332.38061523 110.20458984 331.54638672 C118.51460707 314.73235645 128.31617324 299.8748724 140.625 285.734375 C142.15269682 283.97551353 143.64129906 282.18149988 145.078125 280.34765625 C146.84946806 278.18388149 148.60748362 276.47145475 150.75 274.6875 C153.4790681 272.36605227 155.98920196 269.98835184 158.4375 267.375 C169.88604561 255.83718697 183.95585448 247.00719476 198 239 C198.72219727 238.58733887 199.44439453 238.17467773 200.18847656 237.74951172 C210.13386958 232.13025241 220.17599394 227.6319837 231 224 C231.76103027 223.74089844 232.52206055 223.48179687 233.30615234 223.21484375 C262.019204 213.51298422 262.019204 213.51298422 269 216 C269.02578125 216.76441406 269.0515625 217.52882813 269.078125 218.31640625 C269.96496493 235.0655876 274.69482654 250.66762632 284.8828125 264.02734375 C292.31010261 274.45569758 298.80269002 287.37125 301 300 C290.20028673 307.6497969 277.77530789 310.92391605 265.0625 313.9375 C237.28920799 320.57018777 215.45833261 334.33030586 200.2265625 358.85546875 C195.58389961 367.3984398 193.35969074 376.63692879 191 386 C183.5009584 415.66576016 172.33721378 438.60128477 147 457 C146.28585937 457.5259375 145.57171875 458.051875 144.8359375 458.59375 C139.18607828 462.34701337 132.98158976 464.74376141 126.6875 467.1875 C125.40770264 467.68745483 125.40770264 467.68745483 124.10205078 468.19750977 C112.38187094 472.58843482 101.26440244 474.54271919 88.75 474.4375 C87.47946777 474.42992676 86.20893555 474.42235352 84.89990234 474.41455078 C75.06336527 474.24272806 66.30351676 473.15340252 57 470 C56.3596582 469.78569336 55.71931641 469.57138672 55.05957031 469.35058594 C33.24829649 461.8770971 13.2324719 446.68129557 1 427 C1 426.34 1 425.68 1 425 C0.07703125 425.2165625 -0.8459375 425.433125 -1.796875 425.65625 C-28.62937401 431.55842075 -55.32126426 426.91825893 -78.8125 412.625 C-104.1224634 395.65019748 -119.60566205 371.71486458 -126 342 C-128.1306922 327.86068773 -127.7827465 313.80252146 -124 300 C-125.09441406 299.61134766 -125.09441406 299.61134766 -126.2109375 299.21484375 C-140.09244205 293.1684181 -151.1996145 278.46285501 -159 266 C-159.62777344 265.01773437 -160.25554687 264.03546875 -160.90234375 263.0234375 C-172.9688796 242.58689757 -177.01447909 214.09279674 -171.77148438 191.00366211 C-170.9550932 187.96474532 -169.99905114 184.98322935 -169 182 C-168.72285156 180.98808594 -168.44570313 179.97617187 -168.16015625 178.93359375 C-164.21305933 165.27336432 -156.30727541 153.56409728 -147 143 C-146.21238281 142.01128906 -145.42476562 141.02257812 -144.61328125 140.00390625 C-128.89741571 121.93888293 -104.99578405 114.28675299 -82.44824219 109.12866211 C-76.0126772 107.63286629 -70.05494751 105.64330111 -64 103 C-63.06027344 102.59136719 -62.12054687 102.18273437 -61.15234375 101.76171875 C-52.116969 97.37948232 -38.57952332 89.15904663 -34 80 C-33.34 80 -32.68 80 -32 80 C-31.61328125 79.20335937 -31.61328125 79.20335937 -31.21875 78.390625 C-29.72555397 75.46166356 -28.12816182 72.60618218 -26.5 69.75 C-25.8915625 68.67234375 -25.283125 67.5946875 -24.65625 66.484375 C-24.1096875 65.66453125 -23.563125 64.8446875 -23 64 C-22.34 64 -21.68 64 -21 64 C-20.88011719 63.11957031 -20.76023437 62.23914063 -20.63671875 61.33203125 C-20.02620304 58.1371239 -19.10997266 55.65615103 -17.8125 52.6875 C-14.75575099 45.03679294 -13.00227771 37.14359279 -11.23168945 29.11010742 C-9.25434365 20.34604476 -6.36116926 12.36894023 -2.25 4.375 C-1.82203125 3.53710938 -1.3940625 2.69921875 -0.953125 1.8359375 C-0.63859375 1.23007812 -0.3240625 0.62421875 0 0 Z " fill="#FEFEFE" transform="translate(659,358)"/>
<path d="M0 0 C12.05322762 2.97103607 22.67635279 6.74880523 32.90625 13.8828125 C48.8156677 24.77031805 66.4300944 32.47186321 86 32 C82.00165687 61.04059747 71.74444035 88.25788365 56 113 C55.62020996 113.598125 55.24041992 114.19625 54.84912109 114.8125 C52.37634529 118.64991049 49.74550385 122.35484563 47 126 C46.55527344 126.59280762 46.11054687 127.18561523 45.65234375 127.79638672 C28.62104131 150.21668097 8.02099253 168.43762 -16 183 C-17.11632812 183.68707031 -18.23265625 184.37414062 -19.3828125 185.08203125 C-38.83580068 196.66963127 -61.02526766 203.9381348 -83 209 C-85.6692446 209.65678389 -88.33458221 210.32777459 -91 211 C-91 211.99 -91 212.98 -91 214 C-89.02 214.99 -89.02 214.99 -87 216 C-88.32 216 -89.64 216 -91 216 C-90.95359375 216.53625 -90.9071875 217.0725 -90.859375 217.625 C-90.28582461 230.07923704 -94.48674484 241.47642849 -99.4375 252.6875 C-99.99425415 253.96149658 -99.99425415 253.96149658 -100.56225586 255.26123047 C-102.80063456 260.12786441 -105.13039324 263.23922593 -109 267 C-110.70975612 269.63414079 -112.13918591 272.39030317 -113.5625 275.1875 C-113.95236084 275.94272949 -114.34222168 276.69795898 -114.74389648 277.47607422 C-120.7182465 288.66119679 -120.7182465 288.66119679 -122 301 C-111.14140813 307.08834342 -99.96070336 310.51184158 -87.83984375 313.140625 C-70.15257833 316.99027318 -55.69895099 323.02013305 -42 335 C-41.04480469 335.83144531 -40.08960938 336.66289063 -39.10546875 337.51953125 C-33.79620618 342.4723678 -29.58633721 347.65153359 -25.6875 353.75 C-25.30311768 354.34441895 -24.91873535 354.93883789 -24.52270508 355.55126953 C-17.88588921 366.47997857 -14.34784478 378.52879395 -11.58422852 390.89819336 C-8.84316858 403.07048132 -5.61913512 414.29671769 1 425 C-26.84665828 431.53385278 -54.24563671 427.57272527 -78.8125 412.625 C-104.1224634 395.65019748 -119.60566205 371.71486458 -126 342 C-128.1306922 327.86068773 -127.7827465 313.80252146 -124 300 C-125.09441406 299.61134766 -125.09441406 299.61134766 -126.2109375 299.21484375 C-140.09244205 293.1684181 -151.1996145 278.46285501 -159 266 C-159.62777344 265.01773437 -160.25554687 264.03546875 -160.90234375 263.0234375 C-172.9688796 242.58689757 -177.01447909 214.09279674 -171.77148438 191.00366211 C-170.9550932 187.96474532 -169.99905114 184.98322935 -169 182 C-168.72285156 180.98808594 -168.44570313 179.97617187 -168.16015625 178.93359375 C-164.21305933 165.27336432 -156.30727541 153.56409728 -147 143 C-146.21238281 142.01128906 -145.42476562 141.02257812 -144.61328125 140.00390625 C-128.89741571 121.93888293 -104.99578405 114.28675299 -82.44824219 109.12866211 C-76.0126772 107.63286629 -70.05494751 105.64330111 -64 103 C-63.06027344 102.59136719 -62.12054687 102.18273437 -61.15234375 101.76171875 C-52.116969 97.37948232 -38.57952332 89.15904663 -34 80 C-33.34 80 -32.68 80 -32 80 C-31.61328125 79.20335937 -31.61328125 79.20335937 -31.21875 78.390625 C-29.72555397 75.46166356 -28.12816182 72.60618218 -26.5 69.75 C-25.8915625 68.67234375 -25.283125 67.5946875 -24.65625 66.484375 C-24.1096875 65.66453125 -23.563125 64.8446875 -23 64 C-22.34 64 -21.68 64 -21 64 C-20.88011719 63.11957031 -20.76023437 62.23914063 -20.63671875 61.33203125 C-20.02620304 58.1371239 -19.10997266 55.65615103 -17.8125 52.6875 C-14.75575099 45.03679294 -13.00227771 37.14359279 -11.23168945 29.11010742 C-9.25434365 20.34604476 -6.36116926 12.36894023 -2.25 4.375 C-1.82203125 3.53710938 -1.3940625 2.69921875 -0.953125 1.8359375 C-0.63859375 1.23007812 -0.3240625 0.62421875 0 0 Z " fill="#FEFEFE" transform="translate(659,358)"/>
<path d="M0 0 C2 0 2 0 4 1 C5.61041635 5.0677924 6.41301176 9.07298652 7.125 13.375 C14.28956933 51.22355764 34.90390723 87.01399581 61.55615234 114.50927734 C62.95121066 115.9496267 64.32946078 117.40619733 65.70703125 118.86328125 C72.61012621 126.0089447 80.04110436 132.09644682 88 138 C88.86625 138.65669678 88.86625 138.65669678 89.75 139.32666016 C114.08014423 157.64894232 142.23810085 169.0627825 171.80810547 175.49511719 C174.91164345 176.20998871 177.94893767 177.08837707 181 178 C181.33 179.32 181.66 180.64 182 182 C178.68546305 183.90885381 175.69912645 184.46855898 171.9375 185.0625 C134.49649474 191.83941314 100.26585071 211.14014515 72 236 C71.17242188 236.70511719 70.34484375 237.41023437 69.4921875 238.13671875 C66.51594606 240.68092514 64.18749487 242.71875769 62 246 C61.34 246 60.68 246 60 246 C59.76023437 246.56332031 59.52046875 247.12664062 59.2734375 247.70703125 C57.73198497 250.48259148 55.8368874 252.40760959 53.625 254.6875 C38.69293951 270.89083259 28.5377075 290.31486854 19 310 C18.60039063 310.7940625 18.20078125 311.588125 17.7890625 312.40625 C11.8844373 324.68787042 9.20108999 338.81821895 6 352 C5.33702113 354.66760383 4.6687509 357.33383453 4 360 C2.68 360.33 1.36 360.66 0 361 C-1.75920477 357.12338135 -2.68485818 353.24403381 -3.59692383 349.1105957 C-10.99113857 315.64252743 -25.8706665 284.26120187 -48 258 C-48.90257726 256.89993113 -49.8049042 255.79965685 -50.70703125 254.69921875 C-65.36642161 237.00137213 -83.05423256 222.42433628 -103 211 C-103.65419922 210.62359375 -104.30839844 210.2471875 -104.98242188 209.859375 C-109.62896647 207.19183402 -114.2878201 204.55002805 -119 202 C-119.58096436 201.67636475 -120.16192871 201.35272949 -120.76049805 201.01928711 C-127.25559286 197.5602534 -134.2187544 195.3622447 -141.1875 193.0625 C-141.84397522 192.84378235 -142.50045044 192.6250647 -143.17681885 192.39971924 C-154.63853214 188.59215948 -166.17749291 185.47933372 -178 183 C-178.33 181.68 -178.66 180.36 -179 179 C-175.40655098 176.60436732 -171.96704355 176.02179274 -167.8125 175.1875 C-129.37696104 167.00800429 -93.75443814 148.78176189 -65.46240234 121.41113281 C-63.93195293 119.93433855 -62.38198483 118.4797255 -60.83203125 117.0234375 C-30.84942059 88.42104299 -7.67897277 45.50396036 -2.45703125 4.1875 C-2 2 -2 2 0 0 Z " fill="#1E1E1E" transform="translate(746,390)"/>
<path d="M0 0 C0.03867187 1.14662109 0.03867187 1.14662109 0.078125 2.31640625 C0.96496493 19.0655876 5.69482654 34.66762632 15.8828125 48.02734375 C23.31010261 58.45569758 29.80269002 71.37125 32 84 C21.20028673 91.6497969 8.77530789 94.92391605 -3.9375 97.9375 C-31.71079201 104.57018777 -53.54166739 118.33030586 -68.7734375 142.85546875 C-73.41610039 151.3984398 -75.64030926 160.63692879 -78 170 C-85.46410141 199.52753887 -85.46410141 199.52753887 -92 208 C-101.56769193 207.27791004 -109.86320669 203.9724848 -118 199 C-119.4562283 198.20446787 -120.9147106 197.41305273 -122.375 196.625 C-125.42914654 194.94419452 -128.27941203 193.13616744 -131.125 191.125 C-144.89700027 181.88012785 -160.51146271 177.19916635 -177 176 C-177.35707914 169.15057295 -176.06419532 163.33529691 -174.25 156.75 C-173.97341553 155.72583984 -173.69683105 154.70167969 -173.41186523 153.64648438 C-170.00115638 141.1528123 -165.75732569 129.60485119 -160 118 C-159.40590332 116.78981201 -159.40590332 116.78981201 -158.79980469 115.55517578 C-150.48818463 98.73797666 -140.68618847 83.87758556 -128.375 69.734375 C-126.84730318 67.97551353 -125.35870094 66.18149988 -123.921875 64.34765625 C-122.15053194 62.18388149 -120.39251638 60.47145475 -118.25 58.6875 C-115.5209319 56.36605227 -113.01079804 53.98835184 -110.5625 51.375 C-99.11395439 39.83718697 -85.04414552 31.00719476 -71 23 C-70.27780273 22.58733887 -69.55560547 22.17467773 -68.81152344 21.74951172 C-58.86613042 16.13025241 -48.82400606 11.6319837 -38 8 C-37.23896973 7.74089844 -36.47793945 7.48179687 -35.69384766 7.21484375 C-6.980796 -2.48701578 -6.980796 -2.48701578 0 0 Z " fill="#FEFEFE" transform="translate(928,574)"/>
<path d="M0 0 C22.90885906 17.79314848 39.98777692 41.63906264 44 71 C44.29583843 75.85758963 44.32495648 80.69699878 44.3125 85.5625 C44.32861328 86.82513672 44.34472656 88.08777344 44.36132812 89.38867188 C44.36509378 96.59989664 43.75014853 102.31692138 41 109 C38.28185279 107.92597554 35.58410772 106.82138631 32.8984375 105.66796875 C25.94622457 102.74680611 19.05593531 100.31919524 11.75 98.4375 C10.95480957 98.2324585 10.15961914 98.02741699 9.34033203 97.81616211 C5.26994442 96.78448011 1.19099675 95.81347116 -2.90625 94.89453125 C-25.45949122 89.67617941 -45.22359914 75.17894606 -57.62792969 55.49316406 C-58.21429199 54.53748535 -58.21429199 54.53748535 -58.8125 53.5625 C-59.17375977 52.97823242 -59.53501953 52.39396484 -59.90722656 51.79199219 C-65.35677273 42.510021 -67.83946984 32.17962405 -70.375 21.8125 C-73.69397771 8.64330581 -77.50040634 -4.00075016 -84 -16 C-54.86002921 -21.6795186 -24.53872884 -17.58800909 0 0 Z " fill="#A6A5A6" transform="translate(919,373)"/>
<path d="M0 0 C1.04607422 0.00386719 2.09214844 0.00773437 3.16992188 0.01171875 C11.00951361 0.09898693 18.5448221 0.73066915 26.25 2.25 C25.48816406 3.65572266 25.48816406 3.65572266 24.7109375 5.08984375 C19.14580267 15.84539342 16.25341209 26.53411818 13.625 38.31640625 C12.01163548 45.50020802 9.79244603 52.3439232 7.25 59.25 C6.92773438 60.13429688 6.60546875 61.01859375 6.2734375 61.9296875 C5.61465512 63.7090156 4.93595113 65.48096813 4.25 67.25 C3.59 67.25 2.93 67.25 2.25 67.25 C1.9921875 67.95511719 1.734375 68.66023438 1.46875 69.38671875 C0.14669814 72.49269315 -1.44747854 75.20978065 -3.25 78.0625 C-3.8584375 79.03832031 -4.466875 80.01414062 -5.09375 81.01953125 C-5.6403125 81.75558594 -6.186875 82.49164063 -6.75 83.25 C-7.41 83.25 -8.07 83.25 -8.75 83.25 C-9.07677734 84.07564453 -9.07677734 84.07564453 -9.41015625 84.91796875 C-11.18302706 88.00369433 -13.57401905 90.20100983 -16.1875 92.5625 C-16.98994141 93.28880615 -16.98994141 93.28880615 -17.80859375 94.02978516 C-32.31609922 106.87354663 -49.44358988 111.6156122 -67.78125 116.27734375 C-81.65573297 119.74108739 -81.65573297 119.74108739 -94.4296875 125.96484375 C-95.57824219 126.60099609 -95.57824219 126.60099609 -96.75 127.25 C-97.74 126.92 -98.73 126.59 -99.75 126.25 C-103.51073922 110.03181211 -102.58403495 93.33551937 -98.75 77.25 C-98.48703125 76.09113281 -98.2240625 74.93226563 -97.953125 73.73828125 C-96.90662425 69.31201022 -95.93464468 65.26299539 -93.75 61.25 C-93.09 61.25 -92.43 61.25 -91.75 61.25 C-91.64816406 60.54230469 -91.54632812 59.83460938 -91.44140625 59.10546875 C-86.70260607 39.53449173 -65.75130263 23.01327464 -49.625 12.9375 C-34.65741622 4.29960984 -17.20050546 -0.15446252 0 0 Z " fill="#A6A5A6" transform="translate(633.75,354.75)"/>
<path d="M0 0 C6.83468666 27.59042669 1.14486827 55.71162584 -13.25 79.75 C-29.75517493 104.11478205 -53.18581197 120.3216237 -82.0078125 126.4921875 C-88.63322072 127.61660404 -95.03898575 128.19404237 -101.75 128.1875 C-102.52988281 128.18741943 -103.30976562 128.18733887 -104.11328125 128.18725586 C-118.91506183 128.04246908 -118.91506183 128.04246908 -125 125 C-123.74875227 121.1034203 -122.3345359 117.36972658 -120.6875 113.625 C-116.47869999 103.59815291 -113.48641528 93.24172026 -110.9375 82.6875 C-105.28421461 59.3852764 -92.01789221 39.50661341 -71.83544922 26.11572266 C-61.73480962 19.97580207 -50.54484289 16.25892465 -39.11523438 13.51708984 C-26.99823902 10.55497117 -15.49454472 7.33508857 -4.51953125 1.3203125 C-2 0 -2 0 0 0 Z " fill="#A6A5A6" transform="translate(961,658)"/>
<path d="M0 0 C1.22009766 0.67095703 1.22009766 0.67095703 2.46484375 1.35546875 C13.29787139 7.07053057 24.19724524 10.54262492 36.15234375 13.13671875 C53.8421076 16.99332415 68.29727004 23.01682831 82 35 C82.95519531 35.83144531 83.91039062 36.66289063 84.89453125 37.51953125 C90.20379382 42.4723678 94.41366279 47.65153359 98.3125 53.75 C98.69688232 54.34441895 99.08126465 54.93883789 99.47729492 55.55126953 C106.11411079 66.47997857 109.65215522 78.52879395 112.41577148 90.89819336 C115.15683142 103.07048132 118.38086488 114.29671769 125 125 C97.15334172 131.53385278 69.75436329 127.57272527 45.1875 112.625 C19.8775366 95.65019748 4.39433795 71.71486458 -2 42 C-4.1306922 27.86068773 -3.7827465 13.80252146 0 0 Z " fill="#A6A5A6" transform="translate(535,658)"/>
<path d="M0 0 C0.99 1.98 0.99 1.98 2 4 C2.99 4 3.98 4 5 4 C5.66 3.34 6.32 2.68 7 2 C7 2.66 7 3.32 7 4 C8.134375 3.9175 9.26875 3.835 10.4375 3.75 C22.00403654 3.84022259 32.83785452 7.56476849 43.1875 12.4375 C43.97688965 12.80866943 44.7662793 13.17983887 45.57958984 13.56225586 C49.06773615 15.28088448 52.18074651 17.00447543 55.12109375 19.5625 C58.22060146 22.1867779 61.22013057 23.80832547 64.875 25.5625 C68.6670767 27.38988784 72.43317167 29.22569917 76.125 31.25 C81.0994922 33.76983011 86.58643657 34.80901604 92 36 C85.90413039 49.36402183 73.74878595 60.46857389 62 69 C60.92878906 69.78890625 60.92878906 69.78890625 59.8359375 70.59375 C54.18607828 74.34701337 47.98158976 76.74376141 41.6875 79.1875 C40.83430176 79.52080322 39.98110352 79.85410645 39.10205078 80.19750977 C27.38187094 84.58843482 16.26440244 86.54271919 3.75 86.4375 C2.47946777 86.42992676 1.20893555 86.42235352 -0.10009766 86.41455078 C-9.93663473 86.24272806 -18.69648324 85.15340252 -28 82 C-28.6403418 81.78569336 -29.28068359 81.57138672 -29.94042969 81.35058594 C-51.44227347 73.98312126 -72.24449539 58.73479964 -84 39 C-84 38.01 -84 37.02 -84 36 C-83.45698242 35.82460693 -82.91396484 35.64921387 -82.35449219 35.46850586 C-70.49444313 31.59504295 -59.15512259 27.85322898 -49.359375 19.83984375 C-46.82560986 17.86401033 -45.15468472 17.3605354 -42 17 C-42 16.34 -42 15.68 -42 15 C-28.77097415 8.73732287 -14.97466806 2.70411526 0 4 C0 2.68 0 1.36 0 0 Z " fill="#D8D8D8" transform="translate(744,746)"/>
<path d="M0 0 C1.41102191 2.68335364 2.47895376 5.29379775 3.375 8.1875 C4.93053723 12.95572969 6.86626351 17.46479582 9 22 C9.30808594 22.66902344 9.61617187 23.33804687 9.93359375 24.02734375 C12.47773976 29.35843808 15.67732058 34.12788458 19 39 C28.15352275 52.59487699 34.26641086 68.39594646 33 85 C33.66 85.33 34.32 85.66 35 86 C34.01 86.495 34.01 86.495 33 87 C33 87.99 33 88.98 33 90 C34.98 90.99 34.98 90.99 37 92 C35.68 92 34.36 92 33 92 C33.04640625 92.53625 33.0928125 93.0725 33.140625 93.625 C33.71417539 106.07923704 29.51325516 117.47642849 24.5625 128.6875 C24.00574585 129.96149658 24.00574585 129.96149658 23.43774414 131.26123047 C21.19936544 136.12786441 18.86960676 139.23922593 15 143 C13.29023228 145.63415867 11.86118923 148.39048207 10.4375 151.1875 C10.04691406 151.94200439 9.65632812 152.69650879 9.25390625 153.47387695 C3.71132675 164.26215523 3.71132675 164.26215523 1 176 C-11.54898047 173.82135756 -23.73187882 158.5162425 -30.8125 148.5625 C-32.23290285 146.39087326 -33.62970269 144.20358622 -35 142 C-35.62648438 141.01902344 -36.25296875 140.03804687 -36.8984375 139.02734375 C-48.9725737 118.59621808 -53.01384271 90.08999425 -47.77148438 67.00366211 C-46.9550932 63.96474532 -45.99905114 60.98322935 -45 58 C-44.58427734 56.48212891 -44.58427734 56.48212891 -44.16015625 54.93359375 C-40.21305933 41.27336432 -32.30727541 29.56409728 -23 19 C-22.22140625 18.01644531 -21.4428125 17.03289062 -20.640625 16.01953125 C-17.94885079 12.77947098 -14.8684572 10.31735043 -11.5 7.8125 C-10.66662109 7.17538086 -10.66662109 7.17538086 -9.81640625 6.52539062 C-6.65499263 4.1338742 -3.43929494 1.96989468 0 0 Z " fill="#D8D8D8" transform="translate(535,482)"/>
<path d="M0 0 C0.86890869 0.39396973 0.86890869 0.39396973 1.75537109 0.79589844 C19.24103959 8.74592606 39.23649495 22.16846656 48 40 C47.67 40.99 47.34 41.98 47 43 C44.48828125 44.1328125 44.48828125 44.1328125 41.3125 45.125 C40.27738281 45.45757812 39.24226562 45.79015625 38.17578125 46.1328125 C35.12442471 46.96602425 32.12735854 47.54050804 29 48 C29 48.66 29 49.32 29 50 C28.24976563 50.35191406 27.49953125 50.70382812 26.7265625 51.06640625 C21.5024577 53.58634597 16.57507903 56.14970376 11.875 59.5625 C-2.79995581 70.12753939 -21.6223787 75.40713319 -39.625 75.375 C-40.57995361 75.37338867 -41.53490723 75.37177734 -42.51879883 75.37011719 C-51.16318583 75.22241177 -58.81081743 73.65894541 -67 71 C-67.96808594 70.71125 -68.93617188 70.4225 -69.93359375 70.125 C-79.03080171 67.16741715 -87.47838202 62.19078999 -95.30078125 56.7265625 C-104.88202407 50.09024056 -114.89640344 46.43858732 -126 43 C-126 34.5103373 -117.54206601 27.21234823 -111.8125 21.375 C-83.46998055 -6.69539168 -36.7282524 -17.51062108 0 0 Z " fill="#D8D8D8" transform="translate(787,316)"/>
<path d="M0 0 C7.01713052 4.32214561 13.02264199 9.3418213 19 15 C20.07121094 15.99193359 20.07121094 15.99193359 21.1640625 17.00390625 C35.61868669 30.8167228 43.50913066 48.85365974 48 68 C48.26937378 68.89440796 48.26937378 68.89440796 48.54418945 69.80688477 C49.57198515 74.75208494 49.1858846 79.95815248 49.18530273 84.99707031 C49.18747131 87.09721701 49.20559432 89.19682237 49.22460938 91.296875 C49.25662253 98.75654918 48.92926468 105.7709367 47 113 C46.5359375 114.77697266 46.5359375 114.77697266 46.0625 116.58984375 C40.83518288 133.0597363 32.89798002 147.45499992 21 160 C20.31164062 160.75539063 19.62328125 161.51078125 18.9140625 162.2890625 C13.95330416 167.53329275 8.29229916 172.43199192 2 176 C1.01 175.67 0.02 175.34 -1 175 C-1.81640625 172.7265625 -1.81640625 172.7265625 -2.5625 169.625 C-6.23784619 156.83873817 -13.06788229 144.73263302 -21.30859375 134.32421875 C-30.88163935 121.1695718 -33 102.74818267 -33 87 C-33.66 86.34 -34.32 85.68 -35 85 C-34.34 85 -33.68 85 -33 85 C-32.98582031 84.175 -32.97164062 83.35 -32.95703125 82.5 C-32.15359712 63.04386541 -23.98357803 46.07774182 -13.34765625 30.0390625 C-11.97669159 28.05344587 -11.97669159 28.05344587 -11 26 C-10.34 26 -9.68 26 -9 26 C-8.9175 24.989375 -8.835 23.97875 -8.75 22.9375 C-8.25975732 19.47127712 -6.98532429 17.08668091 -5.12109375 14.109375 C-2.76939672 9.6845792 -1.47370436 4.77386147 0 0 Z " fill="#D8D8D8" transform="translate(960,482)"/>
<path d="M0 0 C1.50772712 -0.00258659 3.01545356 -0.00560057 4.52317905 -0.0090034 C8.65455215 -0.01704296 12.78590784 -0.01886128 16.91728783 -0.01960087 C21.378457 -0.02145689 25.83961726 -0.02900726 30.30078125 -0.03573608 C40.05367281 -0.04930117 49.80656026 -0.05534209 59.55945969 -0.05974674 C65.65838457 -0.06251386 71.75730787 -0.06675222 77.85623169 -0.07125092 C94.76616822 -0.08344424 111.67610348 -0.09374145 128.58604431 -0.09712601 C129.66780679 -0.09734557 130.74956927 -0.09756514 131.86411244 -0.09779136 C132.94837747 -0.09800964 134.03264251 -0.09822791 135.14976406 -0.09845281 C137.34666888 -0.09889626 139.5435737 -0.09934283 141.74047852 -0.09979248 C142.83020529 -0.10001391 143.91993206 -0.10023534 145.04268086 -0.10046348 C162.66666205 -0.10440431 180.2906017 -0.12183617 197.91456687 -0.145152 C216.04033658 -0.16893647 234.16608552 -0.18133118 252.29187107 -0.18249393 C262.45582401 -0.18340703 272.61972293 -0.1890664 282.78366089 -0.20731354 C291.44623223 -0.222811 300.10873287 -0.22777891 308.77131546 -0.21957543 C313.18137788 -0.21570193 317.59129836 -0.21643408 322.00134277 -0.23063278 C345.5227871 -0.30198414 368.63843395 0.32369697 391.54125977 6.32794189 C392.71076172 6.62837402 393.88026367 6.92880615 395.08520508 7.23834229 C405.26062835 9.95556338 414.74614736 13.59335258 424.22875977 18.14044189 C424.92888184 18.46657471 425.62900391 18.79270752 426.3503418 19.12872314 C446.69850069 28.62421537 464.03781185 41.67544681 480.22875977 57.14044189 C481.17750977 58.03634033 482.12625977 58.93223877 483.10375977 59.85528564 C489.58993039 66.13425916 495.01868146 72.78061956 500.22875977 80.14044189 C500.93387695 81.08919189 501.63899414 82.03794189 502.36547852 83.01544189 C523.22875977 111.78204872 523.22875977 111.78204872 523.22875977 124.14044189 C523.88875977 124.14044189 524.54875977 124.14044189 525.22875977 124.14044189 C531.34118579 143.07556265 537.36369405 162.55033911 537.34901428 182.63226318 C537.34986871 183.34146959 537.35072313 184.05067599 537.35160345 184.7813735 C537.35323714 187.13351139 537.34777182 189.48557632 537.34228516 191.83770752 C537.3420028 193.53344725 537.34216196 195.2291871 537.34272766 196.92492676 C537.34301375 201.51109441 537.33714745 206.09723574 537.3301537 210.68339729 C537.32388882 215.48267609 537.32331389 220.28195554 537.3221283 225.08123779 C537.31902421 234.16163119 537.31082328 243.24201249 537.30077881 252.32240057 C537.28958899 262.66337923 537.28409999 273.00435847 537.27908337 283.34534168 C537.26863989 304.61038182 537.25105834 325.8754111 537.22875977 347.14044189 C536.56875977 347.14044189 535.90875977 347.14044189 535.22875977 347.14044189 C535.22241186 345.85358002 535.22241186 345.85358002 535.21593571 344.54072094 C535.11271998 323.68497924 535.00409591 302.82927186 534.88942051 281.9735899 C534.83409583 271.88802443 534.78061505 261.80245542 534.73144531 251.71685791 C534.68859425 242.92828688 534.6423139 234.13974181 534.59188122 225.35121089 C534.56528773 220.69593262 534.54043481 216.04065948 534.51968575 211.38535118 C534.50011463 207.00647162 534.47596938 202.62764145 534.44826889 198.248806 C534.43890098 196.63913049 534.43122476 195.02944414 534.42534065 193.41975212 C534.41707506 191.22683746 534.40279712 189.03404252 534.38697815 186.84117126 C534.3805256 185.61242122 534.37407305 184.38367117 534.36742496 183.11768627 C534.36132382 180.0852203 534.36132382 180.0852203 533.22875977 177.14044189 C533.24938477 176.00606689 533.27000977 174.87169189 533.29125977 173.70294189 C533.36398187 168.1241178 532.5770291 162.55016454 531.22875977 157.14044189 C530.56875977 156.48044189 529.90875977 155.82044189 529.22875977 155.14044189 C528.92016602 152.63653564 528.92016602 152.63653564 528.79125977 149.57794189 C528.10115119 139.88191635 524.33784463 131.88283038 520.43579102 123.08184814 C519.22875977 120.14044189 519.22875977 120.14044189 519.22875977 118.14044189 C518.56875977 117.81044189 517.90875977 117.48044189 517.22875977 117.14044189 C516.53438229 115.14989313 515.87265759 113.14788804 515.22875977 111.14044189 C514.42438477 109.56262939 514.42438477 109.56262939 513.60375977 107.95294189 C512.22875977 105.14044189 512.22875977 105.14044189 512.22875977 102.14044189 C511.56875977 102.14044189 510.90875977 102.14044189 510.22875977 102.14044189 C509.85750977 101.31544189 509.48625977 100.49044189 509.10375977 99.64044189 C507.59199613 96.81848311 506.10968224 94.58205839 504.16625977 92.07794189 C501.91410204 89.17282444 500.56259356 86.57030021 499.22875977 83.14044189 C497.90413127 81.79846019 496.56917886 80.4666516 495.22875977 79.14044189 C493.794794 77.40458861 492.37913566 75.65350508 490.97875977 73.89044189 C487.45061743 69.5197581 483.75793999 65.53914694 479.66235352 61.69903564 C478.22875977 60.14044189 478.22875977 60.14044189 478.22875977 58.14044189 C476.90875977 57.48044189 475.58875977 56.82044189 474.22875977 56.14044189 C474.22875977 55.48044189 474.22875977 54.82044189 474.22875977 54.14044189 C471.89661829 52.93416182 469.73233838 51.9749681 467.22875977 51.14044189 C466.56875977 50.15044189 465.90875977 49.16044189 465.22875977 48.14044189 C464.23875977 47.48044189 463.24875977 46.82044189 462.22875977 46.14044189 C461.56875977 45.15044189 460.90875977 44.16044189 460.22875977 43.14044189 C459.23875977 42.81044189 458.24875977 42.48044189 457.22875977 42.14044189 C456.36250977 41.21231689 456.36250977 41.21231689 455.47875977 40.26544189 C452.68010275 37.62226582 449.75971545 36.61702336 446.22875977 35.14044189 C445.21007315 34.15948441 444.20523993 33.16342112 443.22875977 32.14044189 C442.26969727 31.92387939 442.26969727 31.92387939 441.29125977 31.70294189 C439.22875977 31.14044189 439.22875977 31.14044189 437.59594727 29.36700439 C434.48451506 26.44040975 431.1095822 24.80815234 427.29125977 22.95294189 C426.58807617 22.59780518 425.88489258 22.24266846 425.16040039 21.87677002 C421.53762492 20.08745168 418.28156969 18.67182793 414.22875977 18.14044189 C414.22875977 17.48044189 414.22875977 16.82044189 414.22875977 16.14044189 C413.52364258 16.01282471 412.81852539 15.88520752 412.09204102 15.75372314 C409.12085168 15.11732925 406.30805296 14.25970068 403.41625977 13.32794189 C398.23724849 11.71761151 393.04336618 10.23865109 387.79125977 8.89044189 C387.12956787 8.71537109 386.46787598 8.54030029 385.78613281 8.35992432 C381.84948301 7.36965679 378.28291727 6.96499149 374.22875977 7.14044189 C374.22875977 6.48044189 374.22875977 5.82044189 374.22875977 5.14044189 C373.56875977 5.47044189 372.90875977 5.80044189 372.22875977 6.14044189 C370.22915965 6.1804339 368.22828734 6.18390989 366.22875977 6.14044189 C366.22875977 5.48044189 366.22875977 4.82044189 366.22875977 4.14044189 C365.67188477 4.32606689 365.11500977 4.51169189 364.54125977 4.70294189 C362.22875977 5.14044189 362.22875977 5.14044189 359.98919719 4.6758253 C356.84900553 4.06678903 353.94860165 4.01378647 350.7492609 4.01180744 C349.43121592 4.008583 348.11317093 4.00535855 346.75518519 4.00203639 C345.29390774 4.00350752 343.8326304 4.00507524 342.37135315 4.00672913 C340.81784047 4.00486095 339.26432826 4.00256022 337.7108168 3.9998638 C333.43934188 3.9937398 329.16788651 3.99388012 324.8964082 3.99505818 C320.29018357 3.99526204 315.68396524 3.98974465 311.07774353 3.98500061 C302.05059781 3.97668923 293.02345863 3.97394551 283.99630941 3.97338823 C276.65577675 3.97291312 269.31524625 3.9708586 261.97471428 3.96768761 C241.15758747 3.9588782 220.34046582 3.95426845 199.52333713 3.95501808 C198.40075795 3.95505804 197.27817877 3.95509799 196.12158203 3.95513916 C194.9976295 3.95518004 193.87367697 3.95522092 192.71566527 3.95526304 C174.51569366 3.95566916 156.31574277 3.94610894 138.11577714 3.93200079 C119.42288464 3.91762512 100.73000224 3.91073133 82.03710407 3.91159457 C71.54479818 3.91192622 61.05251399 3.90919333 50.56021309 3.89841652 C41.62280976 3.88929565 32.68543796 3.88714914 23.74803198 3.89392594 C19.1914162 3.89718369 14.63486086 3.89727495 10.07825089 3.88857269 C5.89880918 3.88067325 1.71947549 3.88217406 -2.45996369 3.89085682 C-3.96409154 3.89238431 -5.46822759 3.89060431 -6.97234576 3.88499675 C-17.05233232 3.84993598 -27.10879458 4.22479146 -36.93920797 6.68244487 C-38.77124023 7.14044189 -38.77124023 7.14044189 -42.33374023 7.51544189 C-47.63888991 8.15166833 -52.65707304 9.63156228 -57.77124023 11.14044189 C-59.37612305 11.60837158 -59.37612305 11.60837158 -61.01342773 12.08575439 C-73.27517599 15.74985329 -84.8546505 20.39784235 -95.77124023 27.14044189 C-97.95607024 28.26809609 -100.15560412 29.3143208 -102.39624023 30.32794189 C-111.23370023 35.07398523 -119.54280699 41.47722393 -127.14624023 48.01544189 C-129.77124023 50.14044189 -129.77124023 50.14044189 -131.77124023 50.14044189 C-131.9994043 50.70762939 -132.22756836 51.27481689 -132.46264648 51.85919189 C-134.12221176 54.7522848 -136.18070505 56.47249395 -138.70874023 58.64044189 C-141.22905615 60.80813629 -143.48125033 62.74932387 -145.46264648 65.42169189 C-145.89448242 65.98887939 -146.32631836 66.55606689 -146.77124023 67.14044189 C-147.43124023 67.14044189 -148.09124023 67.14044189 -148.77124023 67.14044189 C-148.83311523 67.69731689 -148.89499023 68.25419189 -148.95874023 68.82794189 C-150.11025778 72.10533799 -152.27469883 73.7600187 -154.77124023 76.14044189 C-157.78672121 79.23197078 -157.78672121 79.23197078 -158.77124023 83.14044189 C-159.49311523 83.65606689 -160.21499023 84.17169189 -160.95874023 84.70294189 C-164.17440959 87.48985534 -165.62739393 90.1649433 -167.57592773 93.89044189 C-169.11953499 96.79605555 -170.9026318 99.4341814 -172.77124023 102.14044189 C-175.87899638 106.80207611 -177.97884753 111.825609 -180.20874023 116.95294189 C-180.50844727 117.63936768 -180.8081543 118.32579346 -181.11694336 119.03302002 C-181.71634466 120.40735228 -182.31384478 121.78251532 -182.90942383 123.1585083 C-183.70780539 124.99455972 -184.52205465 126.82368918 -185.33764648 128.65216064 C-186.89241545 132.43529059 -188.13168872 136.21653601 -189.27124023 140.14044189 C-189.48482178 140.87303223 -189.69840332 141.60562256 -189.91845703 142.3604126 C-192.50505047 151.4462499 -194.92108443 160.64576867 -194.77124023 170.14044189 C-195.01874023 171.31606689 -195.01874023 171.31606689 -195.27124023 172.51544189 C-195.82189019 175.40635414 -195.78591271 178.1513959 -195.73608398 181.08575439 C-195.77124023 183.14044189 -195.77124023 183.14044189 -196.33374023 186.89044189 C-196.75613058 190.02819878 -196.50668253 191.20117538 -195.77124023 194.14044189 C-195.68113342 195.96497211 -195.64496873 197.79247843 -195.64425659 199.61923218 C-195.64143677 200.73250885 -195.63861694 201.84578552 -195.63571167 202.99279785 C-195.6377359 204.20957214 -195.63976013 205.42634644 -195.6418457 206.67999268 C-195.64009338 207.96483551 -195.63834106 209.24967834 -195.63653564 210.57345581 C-195.63197881 214.09391172 -195.63374345 217.6143383 -195.63691473 221.13479471 C-195.63944627 224.81741318 -195.63709867 228.50002914 -195.63552856 232.18264771 C-195.63370965 238.36470999 -195.63610637 244.54676033 -195.64086914 250.7288208 C-195.64631604 257.88159902 -195.64454489 265.03434875 -195.63904274 272.18712628 C-195.63450942 278.32561873 -195.63386198 284.46410258 -195.6364814 290.60259616 C-195.63804235 294.27019587 -195.6382428 297.93778216 -195.63494492 301.60538101 C-195.63152834 305.69016466 -195.63625948 309.77489893 -195.6418457 313.85968018 C-195.63982147 315.08050293 -195.63779724 316.30132568 -195.63571167 317.55914307 C-195.63853149 318.66678009 -195.64135132 319.77441711 -195.64425659 320.9156189 C-195.64463362 321.88199343 -195.64501064 322.84836796 -195.64539909 323.84402657 C-195.77124023 326.14044189 -195.77124023 326.14044189 -196.77124023 328.14044189 C-196.86514764 329.55100868 -196.89753627 330.96591908 -196.89822388 332.37960815 C-196.9010437 333.27008347 -196.90386353 334.16055878 -196.9067688 335.07801819 C-196.90474457 336.05848618 -196.90272034 337.03895416 -196.90063477 338.0491333 C-196.90238708 339.08067032 -196.9041394 340.11220734 -196.90594482 341.17500305 C-196.91037226 344.61402027 -196.90741583 348.05298656 -196.90405273 351.49200439 C-196.90472705 353.90113332 -196.90569814 356.31026218 -196.9069519 358.71939087 C-196.9084313 363.79887533 -196.90627222 368.87834228 -196.90161133 373.95782471 C-196.89600414 380.37234752 -196.89922109 386.78682802 -196.90506172 393.20134926 C-196.92429307 418.20724924 -196.83684805 443.17264507 -195.87384033 468.16125488 C-195.64020112 474.94540918 -195.62439165 481.72781382 -195.64624023 488.51544189 C-195.64237305 489.83286377 -195.63850586 491.15028564 -195.63452148 492.50762939 C-195.64421028 501.88638198 -195.64421028 501.88638198 -196.77124023 504.14044189 C-196.889292 505.6512176 -196.94820472 507.1668302 -196.9765625 508.6819458 C-197.00648033 510.09318222 -197.00648033 510.09318222 -197.03700256 511.53292847 C-197.05371506 512.55067352 -197.07042755 513.56841858 -197.08764648 514.61700439 C-197.10842758 515.65738861 -197.12920868 516.69777283 -197.15061951 517.76968384 C-197.21613895 521.10153439 -197.27501115 524.4334654 -197.33374023 527.76544189 C-197.37692317 530.02065864 -197.42053738 532.27586716 -197.46459961 534.53106689 C-197.57182276 540.06743954 -197.67358469 545.60389268 -197.77124023 551.14044189 C-198.43124023 551.47044189 -199.09124023 551.80044189 -199.77124023 552.14044189 C-199.84003784 505.04800239 -199.89283559 457.95556824 -199.92443622 410.86308831 C-199.92818795 405.29237211 -199.93207096 399.721656 -199.93603516 394.15093994 C-199.93682209 393.04199839 -199.93760902 391.93305684 -199.9384198 390.790511 C-199.95144269 372.87894008 -199.97507921 354.9673983 -200.00269862 337.05584461 C-200.03083982 318.65121374 -200.04743484 300.24659804 -200.05350572 281.84194654 C-200.05760416 270.50251314 -200.0705073 259.16316214 -200.09498964 247.82375412 C-200.11095464 240.02804184 -200.11561648 232.23237161 -200.11174437 224.4366442 C-200.10983941 219.95157558 -200.11257652 215.46665004 -200.12885666 210.98160744 C-200.29769671 162.00463703 -200.29769671 162.00463703 -193.14624023 140.82794189 C-192.80141602 139.76019531 -192.4565918 138.69244873 -192.10131836 137.59234619 C-188.72309705 127.43114776 -184.53947552 117.71948599 -179.77124023 108.14044189 C-179.43092773 107.44885986 -179.09061523 106.75727783 -178.73999023 106.04473877 C-169.79771198 88.03792456 -157.52053951 72.72183133 -143.77124023 58.14044189 C-143.04163086 57.35669189 -142.31202148 56.57294189 -141.56030273 55.76544189 C-135.2072798 49.15262992 -128.06668355 43.65765936 -120.77124023 38.14044189 C-120.22516113 37.72246338 -119.67908203 37.30448486 -119.11645508 36.87384033 C-110.30434405 30.14044189 -110.30434405 30.14044189 -106.77124023 30.14044189 C-106.77124023 29.48044189 -106.77124023 28.82044189 -106.77124023 28.14044189 C-105.73225586 27.62094971 -104.69327148 27.10145752 -103.62280273 26.56622314 C-102.9523291 26.2308252 -102.28185547 25.89542725 -101.59106445 25.54986572 C-100.11664884 24.81298593 -98.6417054 24.07716141 -97.16625977 23.34234619 C-94.08914192 21.80851818 -91.0184846 20.27027972 -87.97436523 18.67169189 C-68.75734038 8.61177284 -46.74872717 3.81360832 -25.34985352 1.43414307 C-23.40516725 1.21264547 -21.46674228 0.93514467 -19.53327942 0.63086319 C-13.05015978 -0.17350622 -6.52178766 -0.00448412 0 0 Z " fill="#383838" transform="translate(578.771240234375,200.85955810546875)"/>
<path d="M0 0 C0.66 0.33 1.32 0.66 2 1 C2.02333643 18.56727045 2.04098284 36.13453608 2.05181217 53.70181847 C2.05697354 61.85818372 2.06401323 70.01453936 2.07543945 78.17089844 C2.08539113 85.27805704 2.09185459 92.38520868 2.09408849 99.49237406 C2.09539478 103.25728824 2.09847545 107.02218249 2.10573006 110.7870903 C2.11375351 114.98485965 2.11399082 119.18259411 2.11352539 123.38037109 C2.11712067 124.63553024 2.12071594 125.89068939 2.12442017 127.18388367 C2.1230455 128.32254379 2.12167084 129.46120392 2.12025452 130.6343689 C2.12117631 131.62806173 2.1220981 132.62175457 2.12304783 133.64555931 C2 136 2 136 1 138 C0.90609259 139.41056679 0.87370397 140.82547719 0.87301636 142.23916626 C0.87019653 143.12964157 0.86737671 144.02011688 0.86447144 144.93757629 C0.86649567 145.91804428 0.8685199 146.89851227 0.87060547 147.90869141 C0.86885315 148.94022842 0.86710083 149.97176544 0.86529541 151.03456116 C0.86086798 154.47357838 0.8638244 157.91254467 0.8671875 161.3515625 C0.86651318 163.76069142 0.86554209 166.16982028 0.86428833 168.57894897 C0.86280893 173.65843343 0.86496801 178.73790039 0.86962891 183.81738281 C0.87523609 190.23190563 0.87201914 196.64638613 0.86617851 203.06090736 C0.84694717 228.06680735 0.93439218 253.03220317 1.8973999 278.02081299 C2.13103911 284.80496728 2.14684859 291.58737192 2.125 298.375 C2.12886719 299.69242188 2.13273437 301.00984375 2.13671875 302.3671875 C2.12702996 311.74594009 2.12702996 311.74594009 1 314 C0.88194823 315.5107757 0.82303551 317.02638831 0.79467773 318.54150391 C0.7647599 319.95274033 0.7647599 319.95274033 0.73423767 321.39248657 C0.71752518 322.41023163 0.70081268 323.42797668 0.68359375 324.4765625 C0.66281265 325.51694672 0.64203156 326.55733093 0.62062073 327.62924194 C0.55510128 330.96109249 0.49622908 334.2930235 0.4375 337.625 C0.39431706 339.88021674 0.35070285 342.13542527 0.30664062 344.390625 C0.19941748 349.92699764 0.09765554 355.46345078 0 361 C-0.66 361.33 -1.32 361.66 -2 362 C-2.22006421 131.20914503 -2.22006421 131.20914503 -1 53 C-0.98797043 52.23532913 -0.97594086 51.47065826 -0.96354675 50.68281555 C-0.69716546 33.78741184 -0.3970145 16.8929032 0 0 Z " fill="#272727" transform="translate(381,391)"/>
<path d="M0 0 C1.3027937 -0.00199105 2.6055874 -0.0039821 3.9478597 -0.00603348 C5.38145683 -0.00318094 6.81505378 -0.00023535 8.24865055 0.00279331 C9.78086825 0.00235701 11.31308588 0.00148103 12.84530312 0.00020415 C17.04807955 -0.00202929 21.25083045 0.00196473 25.45360363 0.00698221 C29.98862861 0.01130304 34.52365217 0.00983912 39.05867863 0.00907993 C46.91340253 0.00855574 54.76811812 0.01169168 62.62283993 0.01731777 C73.97943167 0.02544685 85.33601939 0.02804944 96.69261373 0.02930576 C115.11820107 0.03149407 133.54378399 0.03814815 151.96936893 0.04760838 C169.86748069 0.05678822 187.76559124 0.06386626 205.66370487 0.06811619 C207.31872882 0.06851027 207.31872882 0.06851027 209.0071876 0.06891232 C214.54239951 0.07021736 220.07761144 0.07148107 225.61282337 0.07272422 C271.52863134 0.08308993 317.44443448 0.10070224 363.36023808 0.12304783 C363.36023808 0.45304783 363.36023808 0.78304783 363.36023808 1.12304783 C362.60901383 1.12478408 361.85778959 1.12652033 361.08380097 1.12830919 C316.55014834 1.23135999 272.01651047 1.33947728 227.48288621 1.45416477 C222.13446778 1.46793418 216.78604925 1.4816613 211.43763065 1.49536228 C210.37286659 1.49809059 209.30810254 1.50081889 208.2110729 1.50362987 C190.97551724 1.54769267 173.73995512 1.58833055 156.50438818 1.62770044 C138.81624108 1.66818045 121.12810595 1.71234627 103.43997651 1.75992638 C92.52740488 1.78916465 81.61483407 1.81553552 70.70224682 1.8382268 C63.21686684 1.8540672 55.73150148 1.87349106 48.24613776 1.89571624 C43.92893278 1.90842938 39.61173891 1.91957844 35.29452038 1.92646694 C31.33710383 1.93281633 27.37972579 1.94369541 23.42233054 1.95808113 C21.99549978 1.96248546 20.56866283 1.96526938 19.14182558 1.96620982 C11.90216547 1.9718913 4.76444076 2.13455881 -2.43796557 2.90032345 C-5.07542474 3.16711763 -7.67755481 3.22394938 -10.32726192 3.18554783 C-11.15612911 3.17652439 -11.9849963 3.16750095 -12.83898067 3.15820408 C-13.43323849 3.14660252 -14.0274963 3.13500095 -14.63976192 3.12304783 C-14.30976192 2.46304783 -13.97976192 1.80304783 -13.63976192 1.12304783 C-9.07596418 0.22796842 -4.64082484 -0.00157156 0 0 Z " fill="#4E4E4E" transform="translate(562.6397619247437,201.87695217132568)"/>
<path d="M0 0 C0.495 0.99 0.495 0.99 1 2 C-3.63970869 2.97928278 -8.2208859 3.91343177 -12.9375 4.4375 C-18.10983808 5.03749122 -23.01766159 6.53001504 -28 8 C-29.06992187 8.31195313 -30.13984375 8.62390625 -31.2421875 8.9453125 C-43.50393576 12.60941139 -55.08341027 17.25740046 -66 24 C-68.18483001 25.1276542 -70.38436389 26.1738789 -72.625 27.1875 C-81.10487049 31.74150452 -88.90815127 37.88991295 -96.390625 43.9296875 C-97.18984375 44.57164062 -97.9890625 45.21359375 -98.8125 45.875 C-99.54082031 46.47054687 -100.26914062 47.06609375 -101.01953125 47.6796875 C-103 49 -103 49 -106 49 C-104.65029627 44.95088882 -101.90655278 43.30424806 -98.625 40.8125 C-97.99811279 40.32998779 -97.37122559 39.84747559 -96.7253418 39.3503418 C-94.82298909 37.89202423 -92.91224099 36.44531588 -91 35 C-90.163479 34.35998047 -90.163479 34.35998047 -89.31005859 33.70703125 C-80.53285548 27 -80.53285548 27 -77 27 C-77 26.34 -77 25.68 -77 25 C-75.96101563 24.48050781 -74.92203125 23.96101563 -73.8515625 23.42578125 C-73.18108887 23.0903833 -72.51061523 22.75498535 -71.81982422 22.40942383 C-70.34540861 21.67254404 -68.87046517 20.93671951 -67.39501953 20.2019043 C-64.31790169 18.66807628 -61.24724437 17.12983782 -58.203125 15.53125 C-44.92879126 8.58226992 -15.04153798 -5.01384599 0 0 Z " fill="#404040" transform="translate(549,204)"/>
<path d="M0 0 C0.33 0 0.66 0 1 0 C1.61776852 16.45794492 2.10345235 32.90451785 2.125 49.375 C2.12749756 50.05120392 2.12999512 50.72740784 2.13256836 51.42410278 C2.13839721 53.33220545 2.13581287 55.24032828 2.1328125 57.1484375 C2.13168457 58.23302246 2.13055664 59.31760742 2.12939453 60.43505859 C2 63 2 63 1 65 C0.88194823 66.5107757 0.82303551 68.02638831 0.79467773 69.54150391 C0.77473251 70.48232819 0.75478729 71.42315247 0.73423767 72.39248657 C0.71752518 73.41023163 0.70081268 74.42797668 0.68359375 75.4765625 C0.66281265 76.51694672 0.64203156 77.55733093 0.62062073 78.62924194 C0.55510128 81.96109249 0.49622908 85.2930235 0.4375 88.625 C0.39431706 90.88021674 0.35070285 93.13542527 0.30664062 95.390625 C0.19941748 100.92699764 0.09765554 106.46345078 0 112 C-0.99 112.495 -0.99 112.495 -2 113 C-2.02315071 102.88187997 -2.04092905 92.76376622 -2.05181217 82.64562511 C-2.05703501 77.94757846 -2.06412183 73.24954991 -2.07543945 68.55151367 C-2.08628956 64.01928339 -2.09228136 59.48707053 -2.09487724 54.95482826 C-2.09672765 53.2240401 -2.10034093 51.49325291 -2.10573006 49.76247215 C-2.11296862 47.34187113 -2.11398974 44.9213425 -2.11352539 42.50073242 C-2.11712067 41.78216064 -2.12071594 41.06358887 -2.12442017 40.32324219 C-2.11805582 37.26562905 -1.97532417 34.92597252 -1 32 C-0.84730819 29.56219623 -0.74317303 27.14716099 -0.68359375 24.70703125 C-0.66281265 24.00100266 -0.64203156 23.29497406 -0.62062073 22.56755066 C-0.55532509 20.31596449 -0.49633353 18.06426338 -0.4375 15.8125 C-0.39429575 14.2844934 -0.35068084 12.75649836 -0.30664062 11.22851562 C-0.19966426 7.48579438 -0.09834078 3.7429577 0 0 Z " fill="#1F1F1F" transform="translate(381,640)"/>
<path d="M0 0 C29.79894137 -1.09614634 58.61780656 7.63064522 85 21 C85 21.33 85 21.66 85 22 C78.77850011 21.56340352 75.30004799 20.2215978 70 17 C69.01 17 68.02 17 67 17 C67 16.34 67 15.68 67 15 C66.29488281 14.87238281 65.58976563 14.74476563 64.86328125 14.61328125 C61.89209191 13.97688735 59.0792932 13.11925878 56.1875 12.1875 C51.00848872 10.57716961 45.81460641 9.0982092 40.5625 7.75 C39.90080811 7.5749292 39.23911621 7.3998584 38.55737305 7.21948242 C34.62072324 6.2292149 31.0541575 5.8245496 27 6 C27 5.34 27 4.68 27 4 C26.01 4.495 26.01 4.495 25 5 C23.00039988 5.039992 20.99952758 5.04346799 19 5 C19 4.34 19 3.68 19 3 C18.42024414 3.17200928 17.84048828 3.34401855 17.24316406 3.52124023 C13.70668095 4.27603381 10.2869495 3.5655467 6.75 3.0625 C6.00492188 2.96259766 5.25984375 2.86269531 4.4921875 2.75976562 C2.66054558 2.51319844 0.83013749 2.25749609 -1 2 C-0.67 1.34 -0.34 0.68 0 0 Z " fill="#454545" transform="translate(926,202)"/>
<path d="M0 0 C2 2 2 2 2.25 4.625 C2.00248158 7.96649862 1.31689754 10.83656499 0.44140625 14.05078125 C-0.1625078 16.71762294 -0.06053458 19.27594394 0 22 C-0.165 22.78375 -0.33 23.5675 -0.5 24.375 C-0.94875569 26.73096738 -1.03522245 28.68058214 -1 31.0625 C-1 35 -1 35 -1.48716736 36.89642334 C-2.12227588 39.50156069 -2.1630467 41.91324775 -2.20532227 44.59472656 C-2.22526749 45.71558655 -2.24521271 46.83644653 -2.26576233 47.99127197 C-2.28247482 49.19555847 -2.29918732 50.39984497 -2.31640625 51.640625 C-2.33718735 52.87794373 -2.35796844 54.11526245 -2.37937927 55.39007568 C-2.43365872 58.67138691 -2.48391779 61.95272733 -2.53222656 65.23413086 C-2.58256092 68.58583104 -2.6382636 71.9374372 -2.69335938 75.2890625 C-2.80044509 81.85930464 -2.90223036 88.42961298 -3 95 C-3.33 95 -3.66 95 -4 95 C-4.20346025 87.08757973 -4.38669698 79.17502149 -4.54658794 71.26161289 C-4.62147691 67.58402758 -4.7024193 63.90681912 -4.79907227 60.22973633 C-5.96282156 15.4611501 -5.96282156 15.4611501 0 0 Z " fill="#333333" transform="translate(384,349)"/>
<path d="M0 0 C0.33 0 0.66 0 1 0 C1.86888622 5.97876471 2.15327871 11.77499488 2.125 17.8125 C2.12886719 18.65748047 2.13273438 19.50246094 2.13671875 20.37304688 C2.13542969 21.18451172 2.13414062 21.99597656 2.1328125 22.83203125 C2.13112061 23.92608276 2.13112061 23.92608276 2.12939453 25.04223633 C2 27 2 27 1 30 C0.34 30 -0.32 30 -1 30 C-0.67 20.1 -0.34 10.2 0 0 Z " fill="#9A9A9A" transform="translate(961,446)"/>
<path d="M0 0 C4.34735757 4.34735757 3.11842402 11.60645406 3.1328125 17.390625 C3 20 3 20 2 22 C1.34 22 0.68 22 0 22 C0 14.74 0 7.48 0 0 Z " fill="#2D2D2D" transform="translate(1009,558)"/>
<path d="M0 0 C5.28 0 10.56 0 16 0 C15.01 1.485 15.01 1.485 14 3 C10.9609375 3.29296875 10.9609375 3.29296875 7.375 3.1875 C6.18648437 3.16042969 4.99796875 3.13335937 3.7734375 3.10546875 C2.85820313 3.07066406 1.94296875 3.03585937 1 3 C0.67 2.01 0.34 1.02 0 0 Z " fill="#222222" transform="translate(628,352)"/>
<path d="M0 0 C0.66 0 1.32 0 2 0 C2.70005949 2.07914664 3.38462244 4.16351586 4.0625 6.25 C4.44535156 7.41015625 4.82820313 8.5703125 5.22265625 9.765625 C5.95211763 12.80077085 6.11889082 14.15703213 5 17 C4.15838146 14.91999989 3.32699237 12.83585854 2.5 10.75 C2.0359375 9.58984375 1.571875 8.4296875 1.09375 7.234375 C0 4 0 4 0 0 Z " fill="#3F3F3F" transform="translate(1104,332)"/>
<path d="M0 0 C1.32 0 2.64 0 4 0 C2.43903239 3.83146596 0.08588695 6.28148054 -3 9 C-5.1640625 9.64453125 -5.1640625 9.64453125 -7 10 C-6.57847656 9.44570313 -6.15695312 8.89140625 -5.72265625 8.3203125 C-5.17480469 7.59585938 -4.62695312 6.87140625 -4.0625 6.125 C-3.51722656 5.40570312 -2.97195313 4.68640625 -2.41015625 3.9453125 C-0.96035376 2.05642921 -0.96035376 2.05642921 0 0 Z " fill="#212121" transform="translate(989,631)"/>
<path d="M0 0 C-6 2 -12 4 -18 6 C-17.3671875 4.11328125 -17.3671875 4.11328125 -16 2 C-13.3203125 0.91796875 -13.3203125 0.91796875 -10.125 0.1875 C-9.07570313 -0.06644531 -8.02640625 -0.32039063 -6.9453125 -0.58203125 C-4.17923655 -0.97456457 -2.59637478 -0.92190119 0 0 Z " fill="#232323" transform="translate(727,310)"/>
<path d="M0 0 C0.66 0 1.32 0 2 0 C2.33 0.99 2.66 1.98 3 3 C0.03 5.31 -2.94 7.62 -6 10 C-6.66 9.34 -7.32 8.68 -8 8 C-7.50628906 7.59007812 -7.01257813 7.18015625 -6.50390625 6.7578125 C-5.86324219 6.21898437 -5.22257813 5.68015625 -4.5625 5.125 C-3.92441406 4.59132813 -3.28632812 4.05765625 -2.62890625 3.5078125 C-0.89194996 2.0777243 -0.89194996 2.0777243 0 0 Z " fill="#252525" transform="translate(685,325)"/>
<path d="M0 0 C-0.33 2.97 -0.66 5.94 -1 9 C-1.99 8.67 -2.98 8.34 -4 8 C-4.1875 5.125 -4.1875 5.125 -4 2 C-1 0 -1 0 0 0 Z " fill="#2A2A2A" transform="translate(488,547)"/>
<path d="M0 0 C3.40755272 1.92880342 6.74147635 3.8276509 10 6 C9.67 6.99 9.34 7.98 9 9 C6.5625 8.1875 6.5625 8.1875 4 7 C3.67 6.01 3.34 5.02 3 4 C2.01 3.34 1.02 2.68 0 2 C0 1.34 0 0.68 0 0 Z " fill="#1E1E1E" transform="translate(525,652)"/>
<path d="M0 0 C2 2 2 2 2.3125 4.9375 C2 8 2 8 0.5625 9.875 C-1 11 -1 11 -2 11 C-1.125 3.375 -1.125 3.375 0 0 Z " fill="#2F2F2F" transform="translate(384,349)"/>
<path d="M0 0 C0.79921875 0.19464844 1.5984375 0.38929688 2.421875 0.58984375 C3.32679688 0.82380859 3.32679688 0.82380859 4.25 1.0625 C4.25 2.0525 4.25 3.0425 4.25 4.0625 C2.83194169 3.77767632 1.41559621 3.48431856 0 3.1875 C-0.78890625 3.02507812 -1.5778125 2.86265625 -2.390625 2.6953125 C-4.71831144 2.07099925 -6.64031952 1.21411458 -8.75 0.0625 C-5.47814447 -1.01060858 -3.32052408 -0.83013102 0 0 Z " fill="#404040" transform="translate(979.75,209.9375)"/>
<path d="M0 0 C0.33 0 0.66 0 1 0 C1.33 3.96 1.66 7.92 2 12 C1.01 12.33 0.02 12.66 -1 13 C-2.12758089 9.61725734 -1.81750262 8.23221777 -1.0625 4.8125 C-0.86785156 3.91144531 -0.67320313 3.01039063 -0.47265625 2.08203125 C-0.23869141 1.05142578 -0.23869141 1.05142578 0 0 Z " fill="#313131" transform="translate(1114,368)"/>
<path d="M0 0 C2.0625 0.4375 2.0625 0.4375 4 1 C3.67 1.66 3.34 2.32 3 3 C2.34 3 1.68 3 1 3 C0.67 4.32 0.34 5.64 0 7 C-0.66 6.67 -1.32 6.34 -2 6 C-1.125 1.125 -1.125 1.125 0 0 Z " fill="#353535" transform="translate(429,265)"/>
<path d="M0 0 C0.625 1.875 0.625 1.875 1 4 C0.34 4.66 -0.32 5.32 -1 6 C-1.66 5.67 -2.32 5.34 -3 5 C-3 5.99 -3 6.98 -3 8 C-3.66 8 -4.32 8 -5 8 C-4.64950425 4.75791433 -4.43778819 3.38472296 -1.9375 1.1875 C-1.298125 0.795625 -0.65875 0.40375 0 0 Z " fill="#323232" transform="translate(750,392)"/>
<path d="M0 0 C0.99 0.33 1.98 0.66 3 1 C2.67 2.32 2.34 3.64 2 5 C0.68 5.33 -0.64 5.66 -2 6 C-2.33 4.68 -2.66 3.36 -3 2 C-2.01 1.34 -1.02 0.68 0 0 Z " fill="#2A2A2A" transform="translate(570,567)"/>
<path d="M0 0 C-2.31 1.32 -4.62 2.64 -7 4 C-8.32 3.01 -9.64 2.02 -11 1 C-3.57142857 -1.42857143 -3.57142857 -1.42857143 0 0 Z " fill="#CFCFCF" transform="translate(726,312)"/>
<path d="M0 0 C4.875 4.75 4.875 4.75 6 7 C5.01 7.33 4.02 7.66 3 8 C1.68 6.02 0.36 4.04 -1 2 C-0.67 1.34 -0.34 0.68 0 0 Z " fill="#383838" transform="translate(1067,267)"/>
<path d="M0 0 C-1.485 1.485 -1.485 1.485 -3 3 C-3 2.34 -3 1.68 -3 1 C-3.99 1.495 -3.99 1.495 -5 2 C-6.99960012 2.039992 -9.00047242 2.04346799 -11 2 C-11 1.34 -11 0.68 -11 0 C-3.375 -1.125 -3.375 -1.125 0 0 Z " fill="#363636" transform="translate(956,205)"/>
<path d="M0 0 C0.66 0.66 1.32 1.32 2 2 C-0.64 3.98 -3.28 5.96 -6 8 C-6.33 7.01 -6.66 6.02 -7 5 C-4.69 3.35 -2.38 1.7 0 0 Z " fill="#212121" transform="translate(974,648)"/>
<path d="M0 0 C1.32 0.33 2.64 0.66 4 1 C4 1.99 4 2.98 4 4 C2.02 4.33 0.04 4.66 -2 5 C-1.34 3.35 -0.68 1.7 0 0 Z " fill="#262626" transform="translate(883,580)"/>
<path d="M0 0 C0.66 0 1.32 0 2 0 C1.25 7.625 1.25 7.625 -1 11 C-1.125 3.375 -1.125 3.375 0 0 Z " fill="#1B1B1B" transform="translate(1113,768)"/>
<path d="M0 0 C0.99 0 1.98 0 3 0 C2.67 2.31 2.34 4.62 2 7 C1.01 7 0.02 7 -1 7 C-0.67 4.69 -0.34 2.38 0 0 Z " fill="#1C1C1C" transform="translate(960,705)"/>
<path d="M0 0 C4.24822374 0.47202486 6.19989709 2.96655518 9 6 C5.32579134 5.69381595 4.21864487 5.24228216 1.6875 2.4375 C1.130625 1.633125 0.57375 0.82875 0 0 Z " fill="#434343" transform="translate(1037,241)"/>
<path d="M0 0 C0.66 0.33 1.32 0.66 2 1 C-0.475 4.465 -0.475 4.465 -3 8 C-4 5 -4 5 -3.1875 2.875 C-2 1 -2 1 0 0 Z " fill="#292929" transform="translate(508,503)"/>
<path d="M0 0 C1.35439668 2.70879335 1.06501451 5.00933268 1 8 C0.01 8 -0.98 8 -2 8 C-3.34882814 5.30234372 -2.80338265 3.84835666 -2 1 C-1.34 0.67 -0.68 0.34 0 0 Z " fill="#242424" transform="translate(963,475)"/>
<path d="M0 0 C1.0725 0.2475 2.145 0.495 3.25 0.75 C-0.28411321 2.87046792 -3.69393835 3.28199289 -7.75 3.75 C-5.15187156 0.32047046 -4.43092205 -0.2953948 0 0 Z " fill="#222222" transform="translate(622.75,353.25)"/>
<path d="M0 0 C0.33 0.66 0.66 1.32 1 2 C1.66 2 2.32 2 3 2 C4.625 4.5 4.625 4.5 6 7 C5.01 7.33 4.02 7.66 3 8 C1.68 6.02 0.36 4.04 -1 2 C-0.67 1.34 -0.34 0.68 0 0 Z " fill="#282828" transform="translate(825,340)"/>
<path d="M0 0 C0.66 0.33 1.32 0.66 2 1 C2 1.66 2 2.32 2 3 C1.34 3 0.68 3 0 3 C0 3.66 0 4.32 0 5 C-0.99 5.33 -1.98 5.66 -3 6 C-3.66 5.34 -4.32 4.68 -5 4 C-3.35 2.68 -1.7 1.36 0 0 Z " fill="#1A1A1A" transform="translate(812,809)"/>
<path d="M0 0 C0.99 0.99 1.98 1.98 3 3 C2.01 3.33 1.02 3.66 0 4 C-1.66710346 5.49985609 -1.66710346 5.49985609 -3 7 C-3.33 6.01 -3.66 5.02 -4 4 C-2.68 2.68 -1.36 1.36 0 0 Z " fill="#212121" transform="translate(981,641)"/>
<path d="M0 0 C1.9451 2.91765 2.45276317 4.62537285 3 8 C1.0625 7.25 1.0625 7.25 -1 6 C-1.875 4 -1.875 4 -2 2 C-1.34 1.34 -0.68 0.68 0 0 Z " fill="#383838" transform="translate(490,601)"/>
<path d="M0 0 C0.66 0.99 1.32 1.98 2 3 C0.7260411 5.03833424 -0.61061923 7.03852126 -2 9 C-2.66 9 -3.32 9 -4 9 C-3.71125 8.443125 -3.4225 7.88625 -3.125 7.3125 C-1.9586747 4.91505355 -0.9660119 2.48403061 0 0 Z " fill="#242424" transform="translate(549,396)"/>
<path d="M0 0 C3.63 0.66 7.26 1.32 11 2 C11 2.33 11 2.66 11 3 C7.7 3 4.4 3 1 3 C0.67 2.01 0.34 1.02 0 0 Z " fill="#282828" transform="translate(628,352)"/>
<path d="M0 0 C0.99 0.66 1.98 1.32 3 2 C1.35 3.65 -0.3 5.3 -2 7 C-2.66 6.67 -3.32 6.34 -4 6 C-3.67 5.01 -3.34 4.02 -3 3 C-2.01 3 -1.02 3 0 3 C0 2.01 0 1.02 0 0 Z " fill="#272727" transform="translate(668,341)"/>
<path d="M0 0 C0.33 0.66 0.66 1.32 1 2 C-1.05233685 4.2477975 -2.00667261 5.0022242 -5 6 C-5 5.01 -5 4.02 -5 3 C-2.5 1.3125 -2.5 1.3125 0 0 Z " fill="#1A1A1A" transform="translate(920,766)"/>
<path d="M0 0 C0.66 0 1.32 0 2 0 C2.66 1.98 3.32 3.96 4 6 C3.34 6.66 2.68 7.32 2 8 C0.4375 5.6875 0.4375 5.6875 -1 3 C-0.67 2.01 -0.34 1.02 0 0 Z " fill="#292929" transform="translate(996,516)"/>
</svg>
